# xmcd
#
# Track frame offsets:
#	150
#	12572
#	26809
#	46817
#	60452
#	74234
#	89419
#	104086
#	126594
#	140088
#	151792
#	164181
#	176533
#	190360
#	207762
#	217160
#	227439
#	239086
#	253364
#
# Disc length: 3561 seconds
#
# Revision: 0
# Processed by: cddbd v1.5.2PL0 Copyright (c) Steve Scherf et al.
# Submitted via: EasyCDDAExtractor 9.0.0.1
#
DISCID=320de713
DTITLE=Rubens Band - W krainie Bayou
DYEAR=2004
DGENRE=Zydeco
TTITLE0=Dzien jak dzien
TTITLE1=Tysiace dróg
TTITLE2=bara bara
TTITLE3=Walc
TTITLE4=Na trasie
TTITLE5=Kolo fortuny
TTITLE6=W krainie Bayou
TTITLE7=Spokojny szept
TTITLE8=Barchany
TTITLE9=Czarodziejka
TTITLE10=Tam gdzie blady wstaje swit
TTITLE11=Delirium
TTITLE12=To opowiesc
TTITLE13=Czego ty ciagle chcesz
TTITLE14=Blues Maryna
TTITLE15=Lady Madonna
TTITLE16=Wszystko jedno mi
TTITLE17=Dziewczyna ze snów
TTITLE18=Ballada
EXTD=
EXTT0=
EXTT1=
EXTT2=
EXTT3=
EXTT4=
EXTT5=
EXTT6=
EXTT7=
EXTT8=
EXTT9=
EXTT10=
EXTT11=
EXTT12=
EXTT13=
EXTT14=
EXTT15=
EXTT16=
EXTT17=
EXTT18=
PLAYORDER=
